<svg width="798" height="807" xmlns="http://www.w3.org/2000/svg" xmlns:xlink="http://www.w3.org/1999/xlink" xml:space="preserve" overflow="hidden"><defs><clipPath id="clip0"><rect x="1012" y="73" width="798" height="807"/></clipPath></defs><g clip-path="url(#clip0)" transform="translate(-1012 -73)"><path d="M1637.35 72.9999 1184.65 72.9999C1089.29 72.9999 1012 150.37 1012 245.826L1012 707.174C1012 802.631 1089.29 880 1184.65 880L1637.35 880C1732.71 880 1810 802.631 1810 707.174L1810 245.826C1810 150.37 1732.71 72.9999 1637.35 72.9999Z" fill="#67B4E7" fill-rule="evenodd"/><g><g><g><path d="M1602.14 368.016 1602.14 333.762 1653.58 310.407 1602.04 282.404C1601.3 277.444 1596.69 274.019 1591.73 274.754 1587.39 275.398 1584.13 279.053 1583.98 283.439L1583.98 364.906C1529.83 357.411 1475.25 353.41 1420.58 352.929L1420.58 315.605 1472.02 292.25 1420.48 264.247C1419.74 259.288 1415.12 255.863 1410.16 256.598 1405.82 257.241 1402.56 260.897 1402.42 265.282L1402.42 352.916C1375.03 353.237 1293.25 355.198 1226.91 366.903L1226.91 333.762 1278.35 310.407 1226.81 282.404C1226.07 277.444 1221.46 274.019 1216.5 274.754 1212.16 275.398 1208.9 279.053 1208.76 283.439L1208.76 370.461C1165.79 379.757 1133.1 393.968 1133.1 415.689 1133.1 416.406 1133.14 417.123 1133.21 417.837L1145.81 625.339C1146.58 680.419 1304.98 700.427 1411.5 700.427 1518.02 700.427 1676.42 680.419 1677.19 625.339L1689.76 417.837C1689.84 417.124 1689.89 416.406 1689.9 415.689 1689.9 391.964 1650.93 377.209 1602.14 368.016ZM1338.78 673.562C1316.57 671.885 1296.41 669.495 1278.45 666.614L1278.45 603.473C1278.45 586.827 1291.94 573.333 1308.59 573.333 1308.6 573.333 1308.61 573.333 1308.61 573.333L1308.61 573.333C1325.26 573.333 1338.75 586.827 1338.75 603.473ZM1410.07 377.076C1411.01 377.27 1411.99 377.27 1412.93 377.076 1431.74 377.076 1449.57 377.427 1466.43 378.129L1442.73 453.968C1432.63 454.186 1422.24 454.307 1411.5 454.307 1400.76 454.307 1390.37 454.186 1380.27 453.968L1356.57 378.129C1373.42 377.464 1391.25 377.113 1410.07 377.076ZM1468.34 453.175 1491.39 379.37C1522.21 381.071 1552.93 384.352 1583.42 389.199L1534.53 448.57C1514.61 450.585 1492.53 452.183 1468.34 453.175ZM1354.66 453.175C1330.45 452.183 1308.39 450.585 1288.45 448.57L1239.57 389.199C1270.06 384.351 1300.78 381.07 1331.61 379.37ZM1514.39 573.333 1514.39 573.333C1531.03 573.333 1544.52 586.827 1544.52 603.473L1544.52 666.614C1526.54 669.495 1506.4 671.885 1484.2 673.562L1484.2 603.473C1484.2 586.827 1497.69 573.333 1514.34 573.333 1514.35 573.333 1514.37 573.333 1514.39 573.333ZM1665.49 415.689C1660.84 424.047 1627.79 435.969 1569.39 444.351L1610.54 394.343C1643.35 401.509 1662.06 409.558 1665.49 415.689ZM1212.44 394.343 1253.6 444.351C1195.21 435.951 1162.15 424.047 1157.51 415.689 1160.94 409.558 1179.65 401.509 1212.44 394.343ZM1381.34 675.765 1381.34 609.525C1381.34 592.879 1394.83 579.385 1411.48 579.385 1411.48 579.385 1411.49 579.385 1411.5 579.385L1411.5 579.385C1428.15 579.385 1441.64 592.879 1441.64 609.525L1441.64 675.777C1431.91 676.072 1421.87 676.219 1411.5 676.219 1401.13 676.219 1391.08 676.072 1381.34 675.777Z" fill="#FFFFFF"/></g></g></g></g></svg>