<svg width="799" height="807" xmlns="http://www.w3.org/2000/svg" xmlns:xlink="http://www.w3.org/1999/xlink" xml:space="preserve" overflow="hidden"><defs><clipPath id="clip0"><rect x="1454" y="685" width="799" height="807"/></clipPath></defs><g clip-path="url(#clip0)" transform="translate(-1454 -685)"><path d="M2080.14 685 1626.87 685C1531.39 685 1454 762.37 1454 857.826L1454 1319.17C1454 1414.63 1531.39 1492 1626.87 1492L2080.14 1492C2175.61 1492 2253 1414.63 2253 1319.17L2253 857.826C2253 762.37 2175.61 685 2080.14 685Z" fill="#67B4E7" fill-rule="evenodd"/><path d="M1817.19 932.937C1851.14 948.707 1895.1 926.414 1915.12 883.119 1935.13 839.824 1923.77 791.87 1889.81 776.1 1855.86 760.259 1811.9 782.552 1791.88 825.918 1771.87 869.213 1783.23 917.096 1817.19 932.937Z" fill="#FFFFFF" fill-rule="evenodd"/><path d="M1620.02 1119.76C1687.57 1084.88 1747.79 1060.77 1824.74 1058.76 1896.02 1056.89 1956.53 1026.32 2018.4 994.381 2040.15 983.041 2059.53 962.945 2074.6 943.855 2077.62 939.836 2098.72 908.472 2077.98 919.238 2010.43 954.118 1950.57 978.089 1873.62 980.099 1802.34 981.965 1741.47 1012.68 1679.6 1044.62 1657.85 1055.96 1638.47 1076.05 1623.4 1095.15 1620.38 1099.16 1599.28 1130.53 1620.02 1119.76Z" fill="#FFFFFF" fill-rule="evenodd"/><path d="M2021.16 1241.45C1990.4 1197.08 1962.95 1151.7 1915.35 1122.74 1859.5 1088.4 1798 1153.13 1761.29 1189.26 1703.8 1246.18 1661.43 1322.03 1615.48 1388.41 1604.58 1404.32 1610.82 1409.77 1626.38 1399.3 1647.53 1385.25 1666.74 1365.68 1680.93 1344.89 1697.13 1321.45 1713.33 1298.08 1729.53 1274.71 1744.73 1252.63 1760.93 1215.21 1783.44 1199.44 1866.39 1140.94 1953.99 1358.8 2002.3 1391.2 2032.05 1411.13 2084.6 1406.54 2118.65 1406.54L2136 1406.54 2047.47 1282.67C2037.65 1268.4 2029.19 1253.06 2021.16 1241.45Z" fill="#FFFFFF" fill-rule="evenodd"/></g></svg>