<?xml version="1.0" encoding="utf-8"?>
<!-- Generator: Adobe Illustrator 26.3.1, SVG Export Plug-In . SVG Version: 6.00 Build 0)  -->
<svg version="1.1" id="Layer_1" xmlns="http://www.w3.org/2000/svg" xmlns:xlink="http://www.w3.org/1999/xlink" x="0px" y="0px"
	 viewBox="0 0 283.5 283.5" style="enable-background:new 0 0 283.5 283.5;" xml:space="preserve">
<style type="text/css">
	.st0{fill:#FFFFFF;}
	.st1{fill:#231F20;}
</style>
<g>
	<g>
		<path class="st0" d="M280.6,219.7c0,33.6-27.3,60.9-60.9,60.9H63.8c-33.6,0-60.9-27.3-60.9-60.9V63.8c0-33.6,27.3-60.9,60.9-60.9
			h155.9c33.6,0,60.9,27.3,60.9,60.9V219.7z"/>
		<g>
			<path class="st1" d="M219.7,0H63.8C28.6,0,0,28.6,0,63.8v155.9c0,35.2,28.6,63.8,63.8,63.8h155.9c35.2,0,63.8-28.6,63.8-63.8
				V63.8C283.5,28.6,254.9,0,219.7,0z M280.6,219.7c0,33.6-27.3,60.9-60.9,60.9H63.8c-33.6,0-60.9-27.3-60.9-60.9V63.8
				c0-33.6,27.3-60.9,60.9-60.9h155.9c33.6,0,60.9,27.3,60.9,60.9V219.7z"/>
		</g>
	</g>
	<path d="M218,172.5c-30.4,12.2-66.5,6.1-91.2-18.6S96,93.2,108.3,62.8c0.9-2.2-1.5-4.2-3.5-3c-8.5,5.3-16.3,12.3-22.9,21
		c-23.2,30.9-22.2,74.7,2.6,104.4c1.7,2,3.5,3.9,5.4,5.8c1.8,1.8,3.7,3.6,5.8,5.4c29.7,24.8,73.4,25.8,104.4,2.6
		c8.7-6.5,15.7-14.3,21-22.9C222.2,174,220.2,171.6,218,172.5z"/>
</g>
</svg>
