<svg width="798" height="807" xmlns="http://www.w3.org/2000/svg" xmlns:xlink="http://www.w3.org/1999/xlink" xml:space="preserve" overflow="hidden"><defs><clipPath id="clip0"><rect x="1012" y="992" width="798" height="807"/></clipPath></defs><g clip-path="url(#clip0)" transform="translate(-1012 -992)"><path d="M1637.35 992 1184.65 992C1089.29 992 1012 1069.37 1012 1164.83L1012 1626.17C1012 1721.63 1089.29 1799 1184.65 1799L1637.35 1799C1732.71 1799 1810 1721.63 1810 1626.17L1810 1164.83C1810 1069.37 1732.71 992 1637.35 992Z" fill="#67B4E7" fill-rule="evenodd"/><g><g><g><path d="M1602.14 1287.02 1602.14 1252.76 1653.58 1229.41 1602.04 1201.4C1601.3 1196.44 1596.69 1193.02 1591.73 1193.75 1587.39 1194.4 1584.13 1198.05 1583.98 1202.44L1583.98 1283.91C1529.83 1276.41 1475.25 1272.41 1420.58 1271.93L1420.58 1234.61 1472.02 1211.25 1420.48 1183.25C1419.74 1178.29 1415.12 1174.86 1410.16 1175.6 1405.82 1176.24 1402.56 1179.9 1402.42 1184.28L1402.42 1271.92C1375.03 1272.24 1293.25 1274.2 1226.91 1285.9L1226.91 1252.76 1278.35 1229.41 1226.81 1201.4C1226.07 1196.44 1221.46 1193.02 1216.5 1193.75 1212.16 1194.4 1208.9 1198.05 1208.76 1202.44L1208.76 1289.46C1165.79 1298.76 1133.1 1312.97 1133.1 1334.69 1133.1 1335.41 1133.14 1336.12 1133.21 1336.84L1145.81 1544.34C1146.58 1599.42 1304.98 1619.43 1411.5 1619.43 1518.02 1619.43 1676.42 1599.42 1677.19 1544.34L1689.76 1336.84C1689.84 1336.12 1689.89 1335.41 1689.9 1334.69 1689.9 1310.96 1650.93 1296.21 1602.14 1287.02ZM1338.78 1592.56C1316.57 1590.89 1296.41 1588.49 1278.45 1585.61L1278.45 1522.47C1278.45 1505.83 1291.94 1492.33 1308.59 1492.33 1308.6 1492.33 1308.61 1492.33 1308.61 1492.33L1308.61 1492.33C1325.26 1492.33 1338.75 1505.83 1338.75 1522.47ZM1410.07 1296.08C1411.01 1296.27 1411.99 1296.27 1412.93 1296.08 1431.74 1296.08 1449.57 1296.43 1466.43 1297.13L1442.73 1372.97C1432.63 1373.19 1422.24 1373.31 1411.5 1373.31 1400.76 1373.31 1390.37 1373.19 1380.27 1372.97L1356.57 1297.13C1373.42 1296.46 1391.25 1296.11 1410.07 1296.08ZM1468.34 1372.18 1491.39 1298.37C1522.21 1300.07 1552.93 1303.35 1583.42 1308.2L1534.53 1367.57C1514.61 1369.59 1492.53 1371.18 1468.34 1372.18ZM1354.66 1372.18C1330.45 1371.18 1308.39 1369.59 1288.45 1367.57L1239.57 1308.2C1270.06 1303.35 1300.78 1300.07 1331.61 1298.37ZM1514.39 1492.33 1514.39 1492.33C1531.03 1492.33 1544.52 1505.83 1544.52 1522.47L1544.52 1585.61C1526.54 1588.49 1506.4 1590.89 1484.2 1592.56L1484.2 1522.47C1484.2 1505.83 1497.69 1492.33 1514.34 1492.33 1514.35 1492.33 1514.37 1492.33 1514.39 1492.33ZM1665.49 1334.69C1660.84 1343.05 1627.79 1354.97 1569.39 1363.35L1610.54 1313.34C1643.35 1320.51 1662.06 1328.56 1665.49 1334.69ZM1212.44 1313.34 1253.6 1363.35C1195.21 1354.95 1162.15 1343.05 1157.51 1334.69 1160.94 1328.56 1179.65 1320.51 1212.44 1313.34ZM1381.34 1594.76 1381.34 1528.52C1381.34 1511.88 1394.83 1498.39 1411.48 1498.39 1411.48 1498.39 1411.49 1498.39 1411.5 1498.39L1411.5 1498.39C1428.15 1498.39 1441.64 1511.88 1441.64 1528.52L1441.64 1594.78C1431.91 1595.07 1421.87 1595.22 1411.5 1595.22 1401.13 1595.22 1391.08 1595.07 1381.34 1594.78Z" fill="#25303B"/></g></g></g></g></svg>