<svg width="799" height="807" xmlns="http://www.w3.org/2000/svg" xmlns:xlink="http://www.w3.org/1999/xlink" xml:space="preserve" overflow="hidden"><defs><clipPath id="clip0"><rect x="3192" y="73" width="799" height="807"/></clipPath></defs><g clip-path="url(#clip0)" transform="translate(-3192 -73)"><path d="M3818.14 72.9999 3364.87 72.9999C3269.39 72.9999 3192 150.37 3192 245.826L3192 707.174C3192 802.631 3269.39 880 3364.87 880L3818.14 880C3913.61 880 3991 802.631 3991 707.174L3991 245.826C3991 150.37 3913.61 72.9999 3818.14 72.9999Z" fill="#25303B" fill-rule="evenodd"/><g><g><g><path d="M3782.14 368.016 3782.14 333.762 3833.58 310.407 3782.04 282.404C3781.3 277.444 3776.69 274.019 3771.73 274.754 3767.39 275.398 3764.13 279.053 3763.98 283.439L3763.98 364.906C3709.83 357.411 3655.25 353.41 3600.58 352.929L3600.58 315.605 3652.02 292.25 3600.48 264.247C3599.74 259.288 3595.12 255.863 3590.16 256.598 3585.82 257.241 3582.56 260.897 3582.42 265.282L3582.42 352.916C3555.03 353.237 3473.25 355.198 3406.91 366.903L3406.91 333.762 3458.35 310.407 3406.81 282.404C3406.07 277.444 3401.46 274.019 3396.5 274.754 3392.16 275.398 3388.9 279.053 3388.76 283.439L3388.76 370.461C3345.79 379.757 3313.1 393.968 3313.1 415.689 3313.1 416.406 3313.14 417.123 3313.21 417.837L3325.81 625.339C3326.58 680.419 3484.98 700.427 3591.5 700.427 3698.02 700.427 3856.42 680.419 3857.19 625.339L3869.76 417.837C3869.84 417.124 3869.89 416.406 3869.9 415.689 3869.9 391.964 3830.93 377.209 3782.14 368.016ZM3518.78 673.562C3496.57 671.885 3476.41 669.495 3458.45 666.614L3458.45 603.473C3458.45 586.827 3471.94 573.333 3488.59 573.333 3488.6 573.333 3488.61 573.333 3488.61 573.333L3488.61 573.333C3505.26 573.333 3518.75 586.827 3518.75 603.473ZM3590.07 377.076C3591.01 377.27 3591.99 377.27 3592.93 377.076 3611.74 377.076 3629.57 377.427 3646.43 378.129L3622.73 453.968C3612.63 454.186 3602.24 454.307 3591.5 454.307 3580.76 454.307 3570.37 454.186 3560.27 453.968L3536.57 378.129C3553.42 377.464 3571.25 377.113 3590.07 377.076ZM3648.34 453.175 3671.39 379.37C3702.21 381.071 3732.93 384.352 3763.42 389.199L3714.53 448.57C3694.61 450.585 3672.53 452.183 3648.34 453.175ZM3534.66 453.175C3510.45 452.183 3488.39 450.585 3468.45 448.57L3419.57 389.199C3450.06 384.351 3480.78 381.07 3511.61 379.37ZM3694.39 573.333 3694.39 573.333C3711.03 573.333 3724.52 586.827 3724.52 603.473L3724.52 666.614C3706.54 669.495 3686.4 671.885 3664.2 673.562L3664.2 603.473C3664.2 586.827 3677.69 573.333 3694.34 573.333 3694.35 573.333 3694.37 573.333 3694.39 573.333ZM3845.49 415.689C3840.84 424.047 3807.79 435.969 3749.39 444.351L3790.54 394.343C3823.35 401.509 3842.06 409.558 3845.49 415.689ZM3392.44 394.343 3433.59 444.351C3375.21 435.951 3342.15 424.047 3337.51 415.689 3340.94 409.558 3359.65 401.509 3392.44 394.343ZM3561.34 675.765 3561.34 609.525C3561.34 592.879 3574.83 579.385 3591.48 579.385 3591.48 579.385 3591.49 579.385 3591.5 579.385L3591.5 579.385C3608.15 579.385 3621.64 592.879 3621.64 609.525L3621.64 675.777C3611.91 676.072 3601.87 676.219 3591.5 676.219 3581.13 676.219 3571.08 676.072 3561.34 675.777Z" fill="#FFFFFF"/></g></g></g></g></svg>