<svg width="799" height="807" xmlns="http://www.w3.org/2000/svg" xmlns:xlink="http://www.w3.org/1999/xlink" xml:space="preserve" overflow="hidden"><defs><clipPath id="clip0"><rect x="3207" y="991" width="799" height="807"/></clipPath></defs><g clip-path="url(#clip0)" transform="translate(-3207 -991)"><path d="M3833.14 991 3379.87 991C3284.39 991 3207 1068.37 3207 1163.83L3207 1625.17C3207 1720.63 3284.39 1798 3379.87 1798L3833.14 1798C3928.61 1798 4006 1720.63 4006 1625.17L4006 1163.83C4006 1068.37 3928.61 991 3833.14 991Z" fill="#25303B" fill-rule="evenodd"/><g><g><g><path d="M3797.14 1286.02 3797.14 1251.76 3848.58 1228.41 3797.04 1200.4C3796.3 1195.44 3791.69 1192.02 3786.73 1192.75 3782.39 1193.4 3779.13 1197.05 3778.98 1201.44L3778.98 1282.91C3724.83 1275.41 3670.25 1271.41 3615.58 1270.93L3615.58 1233.61 3667.02 1210.25 3615.48 1182.25C3614.74 1177.29 3610.12 1173.86 3605.16 1174.6 3600.82 1175.24 3597.56 1178.9 3597.42 1183.28L3597.42 1270.92C3570.03 1271.24 3488.25 1273.2 3421.91 1284.9L3421.91 1251.76 3473.35 1228.41 3421.81 1200.4C3421.07 1195.44 3416.46 1192.02 3411.5 1192.75 3407.16 1193.4 3403.9 1197.05 3403.76 1201.44L3403.76 1288.46C3360.79 1297.76 3328.1 1311.97 3328.1 1333.69 3328.1 1334.41 3328.14 1335.12 3328.21 1335.84L3340.81 1543.34C3341.58 1598.42 3499.98 1618.43 3606.5 1618.43 3713.02 1618.43 3871.42 1598.42 3872.19 1543.34L3884.76 1335.84C3884.84 1335.12 3884.89 1334.41 3884.9 1333.69 3884.9 1309.96 3845.93 1295.21 3797.14 1286.02ZM3533.78 1591.56C3511.57 1589.89 3491.41 1587.49 3473.45 1584.61L3473.45 1521.47C3473.45 1504.83 3486.94 1491.33 3503.59 1491.33 3503.6 1491.33 3503.61 1491.33 3503.61 1491.33L3503.61 1491.33C3520.26 1491.33 3533.75 1504.83 3533.75 1521.47ZM3605.07 1295.08C3606.01 1295.27 3606.99 1295.27 3607.93 1295.08 3626.74 1295.08 3644.57 1295.43 3661.43 1296.13L3637.73 1371.97C3627.63 1372.19 3617.24 1372.31 3606.5 1372.31 3595.76 1372.31 3585.37 1372.19 3575.27 1371.97L3551.57 1296.13C3568.42 1295.46 3586.25 1295.11 3605.07 1295.08ZM3663.34 1371.18 3686.39 1297.37C3717.21 1299.07 3747.93 1302.35 3778.42 1307.2L3729.53 1366.57C3709.61 1368.59 3687.53 1370.18 3663.34 1371.18ZM3549.66 1371.18C3525.45 1370.18 3503.39 1368.59 3483.45 1366.57L3434.57 1307.2C3465.06 1302.35 3495.78 1299.07 3526.61 1297.37ZM3709.39 1491.33 3709.39 1491.33C3726.03 1491.33 3739.52 1504.83 3739.52 1521.47L3739.52 1584.61C3721.54 1587.49 3701.4 1589.89 3679.2 1591.56L3679.2 1521.47C3679.2 1504.83 3692.69 1491.33 3709.34 1491.33 3709.35 1491.33 3709.37 1491.33 3709.39 1491.33ZM3860.49 1333.69C3855.84 1342.05 3822.79 1353.97 3764.39 1362.35L3805.54 1312.34C3838.35 1319.51 3857.06 1327.56 3860.49 1333.69ZM3407.44 1312.34 3448.6 1362.35C3390.21 1353.95 3357.15 1342.05 3352.51 1333.69 3355.94 1327.56 3374.65 1319.51 3407.44 1312.34ZM3576.34 1593.76 3576.34 1527.52C3576.34 1510.88 3589.83 1497.39 3606.48 1497.39 3606.48 1497.39 3606.49 1497.39 3606.5 1497.39L3606.5 1497.39C3623.15 1497.39 3636.64 1510.88 3636.64 1527.52L3636.64 1593.78C3626.91 1594.07 3616.87 1594.22 3606.5 1594.22 3596.13 1594.22 3586.08 1594.07 3576.34 1593.78Z" fill="#67B4E7"/></g></g></g></g></svg>